# xmcd
#
# Track frame offsets:
#	150
#	26951
#	45749
#	74435
#	99936
#	121993
#	140100
#	166210
#	184663
#	207411
#	239618
#	258007
#	281572
#	305316
#
# Disc length: 4371 seconds
#
# Revision: 2
# Processed by: cddbd v1.5.1PL0 Copyright (c) Steve Scherf et al.
# Submitted via: audiograbber 1.83.01
#
DISCID=cc11110e
DTITLE=Stacy Mitchhart - What I Feel
DYEAR=2001
DGENRE=Blues
TTITLE0=What I Feel
TTITLE1=King Bee
TTITLE2=Caught Up In The Middle
TTITLE3=I Might Be Your Husband (But I'm My Other Womans Man)
TTITLE4=Down Home Blues
TTITLE5=Cadillac Assembly Line
TTITLE6=100 Degrees In The Shade
TTITLE7=Keep Bluesin' 
TTITLE8=Ain't Nobody For You Like Me
TTITLE9=Taxi
TTITLE10=I Wanna Ummm With You
TTITLE11=Brand New, Same Old Blues
TTITLE12=I Might Be Your Husband (But I'm My Other Womans Man) *midnight Mix
TTITLE13=100 Degrees In The Shade *front Porch Mix
EXTD=YEAR: 2001
EXTT0=
EXTT1=
EXTT2=
EXTT3=
EXTT4=
EXTT5=
EXTT6=
EXTT7=
EXTT8=
EXTT9=
EXTT10=
EXTT11=
EXTT12=
EXTT13=
PLAYORDER=
